<svg width="29" height="19" viewBox="0 0 29 19" fill="none" xmlns="http://www.w3.org/2000/svg">
<g id="Group 3">
<path id="Vector" d="M18.7636 14.0005C19.5515 14.0005 20.3317 13.8453 21.0597 13.5438C21.7877 13.2423 22.4491 12.8003 23.0062 12.2431C23.5634 11.686 24.0053 11.0246 24.3069 10.2966C24.6084 9.56865 24.7636 8.78843 24.7636 8.0005C24.7636 7.21257 24.6084 6.43236 24.3069 5.7044C24.0053 4.97645 23.5634 4.31501 23.0062 3.75786C22.4491 3.20071 21.7877 2.75875 21.0597 2.45723C20.3317 2.1557 19.5515 2.0005 18.7636 2.0005C17.1723 2.0005 15.6462 2.63264 14.521 3.75786C13.3957 4.88308 12.7636 6.4092 12.7636 8.0005C12.7636 9.5918 13.3957 11.1179 14.521 12.2431C15.6462 13.3684 17.1723 14.0005 18.7636 14.0005ZM25.0836 12.9065L28.6636 16.4865C28.759 16.5788 28.8351 16.6892 28.8875 16.8113C28.9398 16.9333 28.9673 17.0645 28.9683 17.1973C28.9694 17.3301 28.944 17.4618 28.8936 17.5846C28.8433 17.7075 28.7689 17.8191 28.675 17.9129C28.581 18.0067 28.4693 18.0809 28.3464 18.1311C28.2234 18.1813 28.0918 18.2065 27.959 18.2052C27.8262 18.204 27.695 18.1763 27.573 18.1238C27.4511 18.0713 27.3408 17.9951 27.2486 17.8995L23.6686 14.3195C22.0611 15.5674 20.0384 16.1557 18.0123 15.9647C15.9863 15.7737 14.1092 14.8178 12.7631 13.2916C11.4171 11.7653 10.7033 9.78345 10.767 7.74943C10.8308 5.7154 11.6673 3.78213 13.1062 2.34315C14.5452 0.904173 16.4785 0.0676701 18.5125 0.00392902C20.5465 -0.0598121 22.5284 0.654 24.0547 2.00005C25.5809 3.34611 26.5368 5.22322 26.7278 7.24926C26.9188 9.2753 26.3304 11.298 25.0826 12.9055L25.0836 12.9065Z" fill="#333333"/>
<rect id="Rectangle 1" x="0.619049" width="8.85499" height="2.39923" rx="1.19961" fill="#333333"/>
<rect id="Rectangle 2" x="0.619049" y="7.43823" width="6.46414" height="2.39923" rx="1.19961" fill="#333333"/>
<rect id="Rectangle 3" x="0.619049" y="14.8768" width="8.85499" height="2.39923" rx="1.19961" fill="#333333"/>
</g>
</svg>
