<svg width="25" height="24" viewBox="0 0 25 24" fill="none" xmlns="http://www.w3.org/2000/svg">
<g id="bookmark 1" clip-path="url(#clip0_208_50)">
<path id="Vector" d="M4.98793 11.0097L12.812 18.8338L20.6361 11.0097C21.3279 10.3179 21.7165 9.37973 21.7165 8.40145C21.7165 7.42317 21.3279 6.48496 20.6361 5.79321C20.2936 5.4507 19.887 5.179 19.4395 4.99363C18.9919 4.80826 18.5123 4.71285 18.0279 4.71285C17.0496 4.71285 16.1114 5.10147 15.4197 5.79321L12.812 8.40084L10.2044 5.79444C9.5109 5.11198 8.57581 4.7312 7.60282 4.73504C6.62983 4.73889 5.69778 5.12705 5.00969 5.81498C4.3216 6.50291 3.93322 7.43487 3.92914 8.40786C3.92507 9.38084 4.30563 10.316 4.98793 11.0097ZM11.9428 4.05357L12.812 4.92278L13.6812 4.05357C14.2511 3.47865 14.929 3.02196 15.6759 2.70971C16.4227 2.39747 17.2239 2.23582 18.0335 2.23405C18.843 2.23227 19.6449 2.39041 20.3931 2.69938C21.1414 3.00836 21.8212 3.46207 22.3936 4.03449C22.966 4.60691 23.4198 5.28675 23.7287 6.03499C24.0377 6.78323 24.1958 7.58513 24.1941 8.39465C24.1923 9.20417 24.0306 10.0054 23.7184 10.7522C23.4062 11.4991 22.9495 12.177 22.3745 12.7469L13.6825 21.4402C13.5683 21.5545 13.4327 21.6452 13.2834 21.707C13.1342 21.7689 12.9742 21.8008 12.8126 21.8008C12.6511 21.8008 12.4911 21.7689 12.3418 21.707C12.1926 21.6452 12.057 21.5545 11.9428 21.4402L3.24951 12.7481C2.66678 12.18 2.20264 11.5019 1.88402 10.7531C1.5654 10.0042 1.39865 9.19955 1.39344 8.38576C1.38822 7.57196 1.54465 6.76523 1.85365 6.01237C2.16264 5.2595 2.61805 4.57548 3.19346 3.99999C3.76887 3.42449 4.45283 2.96899 5.20565 2.65988C5.95848 2.35078 6.76519 2.19424 7.57898 2.19934C8.39278 2.20444 9.19746 2.37108 9.94635 2.68959C10.6952 3.0081 11.3734 3.47214 11.9416 4.0548L11.9428 4.05357Z" fill="#181725"/>
</g>
<defs>
<clipPath id="clip0_208_50">
<rect width="24" height="24" fill="white" transform="translate(0.293701)"/>
</clipPath>
</defs>
</svg>
