<svg width="25" height="24" viewBox="0 0 25 24" fill="none" xmlns="http://www.w3.org/2000/svg">
<g id="user 1">
<path id="Vector" d="M8.32364 12.07C8.46447 12.0175 8.61591 11.9903 8.76902 11.9898C8.92213 11.9893 9.0738 12.0156 9.21506 12.0672C9.35631 12.1188 9.4843 12.1945 9.59144 12.29C9.69858 12.3855 9.78271 12.4988 9.83884 12.6231C9.89498 12.7475 9.92199 12.8804 9.91827 13.014C9.91456 13.1477 9.88019 13.2793 9.81721 13.4011C9.75422 13.523 9.6639 13.6325 9.55158 13.7234C9.43925 13.8142 9.30721 13.8845 9.16325 13.93C8.39757 14.1934 7.74041 14.6519 7.27728 15.2458C6.81415 15.8397 6.56649 16.5415 6.56653 17.26V19C6.56653 19.2652 6.68721 19.5196 6.90202 19.7071C7.11683 19.8946 7.40818 20 7.71197 20H16.8755C17.1793 20 17.4707 19.8946 17.6855 19.7071C17.9003 19.5196 18.021 19.2652 18.021 19V17.353C18.0211 16.6115 17.7631 15.8874 17.2811 15.2768C16.7992 14.6662 16.1161 14.1979 15.3223 13.934C15.1775 13.8901 15.0442 13.8213 14.9304 13.7316C14.8165 13.6419 14.7245 13.5332 14.6597 13.4119C14.5949 13.2905 14.5587 13.1591 14.5531 13.0253C14.5476 12.8916 14.5729 12.7582 14.6275 12.6331C14.6821 12.508 14.7649 12.3938 14.8711 12.2972C14.9772 12.2006 15.1044 12.1235 15.2453 12.0706C15.3861 12.0177 15.5377 11.9901 15.691 11.9893C15.8444 11.9885 15.9963 12.0146 16.1379 12.066C17.3653 12.4742 18.4218 13.1983 19.1672 14.1425C19.9126 15.0867 20.3118 16.2063 20.3119 17.353V19C20.3119 19.7956 19.9498 20.5587 19.3054 21.1213C18.661 21.6839 17.7869 22 16.8755 22H7.71197C6.8006 22 5.92655 21.6839 5.28211 21.1213C4.63768 20.5587 4.27563 19.7956 4.27563 19V17.26C4.27579 16.1402 4.66197 15.0463 5.38392 14.1206C6.10588 13.195 7.1302 12.4805 8.32364 12.07ZM12.2938 2C13.5089 2 14.6743 2.42143 15.5336 3.17157C16.3928 3.92172 16.8755 4.93913 16.8755 6V8C16.8755 9.06087 16.3928 10.0783 15.5336 10.8284C14.6743 11.5786 13.5089 12 12.2938 12C11.0786 12 9.9132 11.5786 9.05394 10.8284C8.19469 10.0783 7.71197 9.06087 7.71197 8V6C7.71197 4.93913 8.19469 3.92172 9.05394 3.17157C9.9132 2.42143 11.0786 2 12.2938 2ZM12.2938 4C11.6862 4 11.1035 4.21071 10.6738 4.58579C10.2442 4.96086 10.0029 5.46957 10.0029 6V8C10.0029 8.53043 10.2442 9.03914 10.6738 9.41421C11.1035 9.78929 11.6862 10 12.2938 10C12.9013 10 13.484 9.78929 13.9137 9.41421C14.3433 9.03914 14.5846 8.53043 14.5846 8V6C14.5846 5.46957 14.3433 4.96086 13.9137 4.58579C13.484 4.21071 12.9013 4 12.2938 4Z" fill="black"/>
</g>
</svg>
